<?xml version="1.0" encoding="utf-8"?>
<!-- Generator: Adobe Illustrator 16.0.0, SVG Export Plug-In . SVG Version: 6.00 Build 0)  -->
<!DOCTYPE svg PUBLIC "-//W3C//DTD SVG 1.1//EN" "http://www.w3.org/Graphics/SVG/1.1/DTD/svg11.dtd">
<svg version="1.1" id="Layer_1" xmlns="http://www.w3.org/2000/svg" xmlns:xlink="http://www.w3.org/1999/xlink" x="0px" y="0px"
	 width="960px" height="560px" viewBox="0 0 960 560" enable-background="new 0 0 960 560" xml:space="preserve">
<g>
	<path fill="#EDAA00" d="M829.37,208.12c6.2,6.2,6.32,13.7,0,20.04l-75.03,75.029c-3.939,3.92-10.37,3.931-14.3,0L722.85,286
		c-3.939-3.939-3.939-10.38,0-14.3l43.551-43.56c5.33-5.33,5.47-14.58,0-20.04l-43.54-43.55c-3.94-3.94-3.94-10.37,0-14.3
		l17.17-17.18c3.939-3.94,10.37-3.94,14.3,0l75.04,75.02V208.12z M600.63,167.45c-6.2-6.2-6.33-13.7,0-20.03l75.03-75.04
		c3.93-3.93,10.37-3.93,14.3,0l17.18,17.18c3.931,3.93,3.931,10.37,0,14.3l-43.55,43.56c-5.34,5.32-5.47,14.57,0,20.03L707.13,211
		c3.93,3.94,3.93,10.37,0,14.3l-17.18,17.18c-3.931,3.94-10.37,3.94-14.3,0l-75.03-75.03H600.63z"/>
</g>
<path fill="#999999" d="M245.54,408.03h29.02v14.6c0,13.34,2.46,22.97,7.1,28.87c0.92,1.56,2.77,2.8,5.55,4.35
	c2.8,1.551,6.8,2.48,12.67,2.48c11.101,0,17.28-5.6,20.98-12.42c3.399-6.82,4.02-15.5,4.02-21.73c0-10.859-3.7-18-8.95-23.279
	c-5.25-4.98-12.35-8.4-18.83-11.2l-5.57-2.48c-6.48-2.8-17.6-7.45-27.47-17.079c-12.35-12.101-18.52-27.32-18.52-45.951
	c0-19.58,5.25-36.039,15.13-47.529c9.56-11.18,23.15-18,39.2-18c22.22,0,34.57,9.62,41.05,18c8.95,11.5,13.271,27.33,13.271,47.52
	v14.58h-29.33v-14.6c0-17.7-4.021-27.32-9.261-31.67c-5.239-4.34-11.72-4.34-15.729-4.34c-12.04,0-17.9,6.52-21.3,14.6
	c-3.7,8.07-4,17.4-4,21.43c0,10.85,3.7,18,8.94,23.6c5.25,5.57,12.35,9.601,19.76,12.4l4.94,2.18c5.86,2.48,16.98,6.521,26.85,16.15
	c12.66,11.801,19.141,27.021,19.141,45.65c0,35.1-19.45,63.35-54.33,63.35c-36.1,0-54.33-23.92-54.33-64.899V408.01V408.03z
	 M367,323.87c0-20.181,4.33-36.021,12.97-47.2c3.4-4.04,8.03-8.38,14.82-12.1c6.78-3.42,15.1-5.9,26.22-5.9
	c22.23,0,34.57,9.62,41.061,18c8.64,11.18,12.96,27.02,12.96,47.2v98.45c0,20.18-4.32,36-12.96,47.199
	c-6.5,8.381-18.83,18-41.061,18c-21.899,0-34.569-9.619-41.05-18C371.32,458.32,367,442.5,367,422.32V323.87L367,323.87z
	 M396.02,422.31c0,18.33,4.021,27.03,9.261,31.37c5.25,4.351,11.1,4.66,15.739,4.66c4.021,0,10.5-0.3,15.75-4.66
	c5.24-4.34,9.261-13.04,9.261-31.359V323.9c0-17.7-4.021-27-9.261-31.36c-5.25-4.34-11.729-4.34-15.75-4.34
	c-4.63,0-10.5,0-15.739,4.35c-5.24,4.36-9.261,13.671-9.261,31.37v98.44V422.31z M596.25,260.35V422.7
	c0,20.069-4.32,35.8-12.97,46.92c-6.48,8.33-18.83,17.899-41.05,17.899c-21.92,0-34.57-9.569-41.051-17.899
	c-8.649-11.101-12.97-26.851-12.97-46.9V260.33h29.03V422.7c0,18.22,4,26.859,9.26,31.18c5.23,4.32,11.1,4.63,15.73,4.63
	c4,0,10.5-0.3,15.739-4.62c5.25-4.319,9.261-12.96,9.261-31.17V260.36h29.02V260.35z M607.16,260.04H715.3v29.14H675.9V486.15
	h-29.33V289.18h-39.4v-29.14H607.16z M804.73,358.83v-98.5l29.34,0.27v225.55h-29.34V387.97H755v98.181h-29.06v-225.8H755v98.48
	H804.73z"/>
<g>
	<path fill="#999999" stroke="#FFFFFF" stroke-miterlimit="10" d="M150.03,487.3h-25.2V415.9h25.2v23.029H232v25.38h-81.97
		 M232,404.55H124.83v-25.43h40.93v-17.36h-40.93v-25.6h107.2v25.6h-40.94v17.36H232 M232,323.939H124.83V260.24h25.2v38.279h15.73
		v-38.27h25.2v38.27h15.85v-38.27H232"/>
</g>
<g>
	<path fill="#999999" d="M176.9,245.28c-7.95,0-15.22-1.44-21.6-4.3c-6.4-2.85-11.9-7.05-16.4-12.48c-4.5-5.4-8-12.1-10.43-19.88
		c-2.42-7.75-3.65-16.7-3.65-26.63c0-9.521,1.23-18.3,3.65-26.08c2.43-7.83,6-14.6,10.6-20.14c4.62-5.54,10.35-9.9,17.02-12.97
		c6.67-3.06,14.34-4.6,22.8-4.6c7.44,0,14.18,1.2,20.03,3.6c5.82,2.38,10.9,5.5,15.1,9.3l0.6,0.54l-1.3,1.32
		c-0.5,0.48-1,0.73-1.55,0.73c-0.5,0-1.3-0.25-3.3-2c-1.34-1.17-3.3-2.46-5.85-3.84c-2.55-1.37-5.8-2.67-9.7-3.86
		c-3.85-1.17-8.57-1.771-14.04-1.771c-7.74,0-14.75,1.4-20.86,4.16c-6.1,2.77-11.33,6.76-15.54,11.87
		c-4.24,5.12-7.52,11.44-9.75,18.78c-2.26,7.37-3.4,15.76-3.4,24.94c0,9.5,1.14,18.03,3.4,25.35c2.23,7.3,5.47,13.53,9.63,18.55
		c4.13,5,9.17,8.83,14.98,11.43c5.8,2.6,12.38,3.92,19.55,3.92c6.36,0,11.8-0.74,16.2-2.2c4.4-1.47,8.08-3.12,10.92-4.9
		c2.85-1.8,5.02-3.44,6.46-4.88c2.17-2.17,3-2.47,3.55-2.47c0.54,0,1.06,0.25,1.54,0.73l0.94,0.94l-0.35,0.53
		c-1.3,1.9-3.2,3.82-5.64,5.72c-2.43,1.9-5.37,3.64-8.74,5.2s-7.2,2.85-11.35,3.84c-4.18,1-8.72,1.52-13.5,1.52L176.9,245.28z
		 M288.1,245.28c-8.7,0-16.5-1.5-23.17-4.5c-6.68-2.97-12.4-7.3-16.97-12.85c-4.56-5.52-8.07-12.25-10.42-20
		c-2.34-7.72-3.52-16.45-3.52-25.94c0-9.49,1.18-18.28,3.52-26.08c2.35-7.83,5.85-14.6,10.42-20.13c4.56-5.55,10.27-9.92,16.96-13
		c6.68-3.05,14.48-4.6,23.18-4.6c8.62,0,16.4,1.54,23.1,4.6c6.729,3.08,12.46,7.45,17.03,13c4.579,5.53,8.1,12.3,10.42,20.12
		c2.34,7.82,3.529,16.6,3.529,26.07c0,9.47-1.199,18.2-3.529,25.93c-2.33,7.74-5.841,14.47-10.42,20
		c-4.58,5.56-10.301,9.88-17.03,12.86c-6.7,2.97-14.48,4.48-23.1,4.48V245.28z M288.1,122.23c-8.23,0-15.52,1.46-21.65,4.35
		c-6.14,2.88-11.32,6.97-15.42,12.17c-4.1,5.2-7.24,11.53-9.33,18.85c-2.1,7.33-3.15,15.54-3.15,24.4c0,8.83,1.06,17.02,3.15,24.3
		c2.08,7.28,5.22,13.56,9.33,18.67c4.1,5.1,9.27,9.14,15.4,12c6.15,2.84,13.44,4.28,21.67,4.28c8.15,0,15.42-1.44,21.6-4.3
		c6.17-2.84,11.38-6.87,15.47-11.98c4.101-5.13,7.25-11.4,9.33-18.66c2.1-7.27,3.14-15.46,3.14-24.3c0-8.87-1.05-17.08-3.14-24.4
		c-2.08-7.3-5.22-13.64-9.33-18.85c-4.1-5.2-9.3-9.3-15.479-12.17c-6.2-2.9-13.45-4.35-21.601-4.35L288.1,122.23z M411.28,245.28
		c-16.03,0-28.45-5.22-36.9-15.54c-8.42-10.25-12.7-26.23-12.7-47.5c0-8.82,1.15-17.24,3.4-25c2.25-7.78,5.7-14.64,10.22-20.38
		c4.55-5.76,10.28-10.36,17.021-13.67c6.77-3.33,14.739-5,23.699-5c9.03,0,17.07,1.82,23.9,5.44c6.14,3.26,11.5,8.2,15.92,14.66
		V69.48h4.54v174.3h-1.53c-1.6,0-2.5-1-2.5-2.76l-0.46-21.1c-5.26,7.42-11.55,13.46-18.75,17.96c-7.84,4.9-16.55,7.4-25.87,7.4
		H411.28z M416.02,122.23c-8.399,0-15.8,1.54-21.96,4.6c-6.159,3.03-11.369,7.3-15.479,12.66c-4.12,5.36-7.24,11.77-9.28,19.03
		c-2.04,7.27-3.08,15.24-3.08,23.7c0,20,3.86,35,11.48,44.62c7.569,9.55,18.87,14.4,33.58,14.4c8.85,0,17.2-2.521,24.8-7.47
		c7.6-4.96,14.24-11.85,19.76-20.5v-68.2c-5.27-8.3-11.17-14.23-17.53-17.65c-6.399-3.45-13.899-5.2-22.279-5.2L416.02,122.23z
		 M537.4,245.28c-8.46,0-16.15-1.5-22.86-4.5c-6.72-2.97-12.5-7.33-17.16-12.96c-4.649-5.63-8.28-12.6-10.8-20.7
		c-2.5-8.1-3.76-17.38-3.76-27.63c0-9,1.229-17.37,3.649-24.84c2.431-7.5,6-14.02,10.601-19.38c4.63-5.38,10.359-9.6,17.029-12.6
		c6.681-2.98,14.36-4.5,22.801-4.5c6.46,0,12.6,1.18,18.229,3.5c5.64,2.32,10.62,5.8,14.78,10.34c4.16,4.53,7.46,10.17,9.83,16.76
		c2.34,6.6,3.53,14.24,3.53,22.75c0,0.84-0.4,1.3-0.761,1.56c-0.439,0.3-0.939,0.44-1.5,0.44h-93.5c-0.1,0.87-0.149,1.74-0.149,2.6
		v3.35c0,10,1.2,18.96,3.58,26.6c2.37,7.64,5.779,14.13,10.13,19.3c4.33,5.14,9.64,9.1,15.779,11.8c6.15,2.7,13.07,4.05,20.561,4.05
		c6.78,0,12.68-0.74,17.52-2.2c4.87-1.48,8.971-3.14,12.181-4.93c3.2-1.78,5.68-3.43,7.34-4.9c2.44-2.13,3.27-2.42,3.8-2.42
		c0.4,0,0.96,0.13,1.55,0.73l1,0.97l-0.45,0.55c-1.46,1.8-3.569,3.63-6.46,5.58c-2.84,1.9-6.199,3.66-9.979,5.23
		c-3.82,1.6-8.04,2.9-12.53,3.9c-4.52,1-9.229,1.52-14,1.52L537.4,245.28z M487.8,169.75h91.17c-0.069-7.45-1.14-14.15-3.2-19.95
		c-2.1-5.97-5.1-11.05-8.859-15.12c-3.75-4.04-8.25-7.16-13.35-9.27c-5.12-2.1-10.721-3.17-16.65-3.17c-7.16,0-13.7,1.17-19.45,3.5
		c-5.729,2.3-10.74,5.6-14.87,9.78c-4.149,4.2-7.5,9.33-10,15.28c-2.38,5.7-3.979,12.1-4.77,18.97L487.8,169.75z"/>
</g>
</svg>
