<svg xmlns="http://www.w3.org/2000/svg" width="512" height="512" viewBox="0 0 512 512"><g fill="#EDAA00"><path d="M442.4 288.93c10.13 10.12 10.32 22.34 0 32.65l-122.3 122.3c-6.4 6.4-16.88 6.4-23.3 0l-27.98-28c-6.43-6.4-6.43-16.9 0-23.3l70.97-71c8.67-8.67 8.9-23.75 0-32.64l-70.98-71c-6.43-6.4-6.43-16.9 0-23.3l27.98-28c6.43-6.4 16.9-6.4 23.3 0l122.3 122.3zM69.6 222.63c-10.13-10.1-10.32-22.32 0-32.64L191.87 67.7c6.4-6.4 16.9-6.42 23.3 0l28 28c6.4 6.4 6.4 16.9 0 23.3l-70.98 71c-8.68 8.66-8.9 23.74 0 32.63l71 71c6.4 6.42 6.4 16.9 0 23.32l-28 27.98c-6.42 6.42-16.92 6.42-23.32 0l-122.3-122.3z"/></g></svg>