<svg xmlns="http://www.w3.org/2000/svg" width="960" height="560" viewBox="0 0 960 560"><g fill="#EDAA00"><path d="M829.37 208.12c6.2 6.2 6.32 13.7 0 20.04l-75.03 75.03c-3.94 3.92-10.37 3.93-14.3 0L722.85 286c-3.94-3.94-3.94-10.38 0-14.3l43.55-43.56c5.33-5.33 5.47-14.58 0-20.04l-43.54-43.55c-3.94-3.94-3.94-10.37 0-14.3l17.17-17.18c3.94-3.94 10.37-3.94 14.3 0l75.04 75.02zM600.63 167.45c-6.2-6.2-6.33-13.7 0-20.03l75.03-75.04c3.93-3.93 10.37-3.93 14.3 0l17.18 17.18c3.93 3.93 3.93 10.37 0 14.3l-43.55 43.56c-5.34 5.32-5.47 14.57 0 20.03L707.13 211c3.93 3.94 3.93 10.37 0 14.3l-17.18 17.18c-3.93 3.94-10.37 3.94-14.3 0l-75.03-75.03z"/></g><path d="M245.54 408.03h29.02v14.6c0 13.34 2.46 22.97 7.1 28.87.92 1.56 2.77 2.8 5.55 4.35 2.8 1.55 6.8 2.48 12.67 2.48 11.1 0 17.28-5.6 20.98-12.42 3.4-6.82 4.02-15.5 4.02-21.73 0-10.86-3.7-18-8.95-23.28-5.25-4.98-12.35-8.4-18.83-11.2l-5.57-2.48c-6.48-2.8-17.6-7.45-27.47-17.08-12.35-12.1-18.52-27.32-18.52-45.95 0-19.58 5.25-36.04 15.13-47.53 9.56-11.18 23.15-18 39.2-18 22.22 0 34.57 9.62 41.05 18 8.95 11.5 13.27 27.33 13.27 47.52v14.58h-29.33v-14.6c0-17.7-4.02-27.32-9.26-31.67-5.24-4.34-11.72-4.34-15.73-4.34-12.04 0-17.9 6.52-21.3 14.6-3.7 8.07-4 17.4-4 21.43 0 10.85 3.7 18 8.94 23.6 5.25 5.57 12.35 9.6 19.76 12.4l4.94 2.18c5.86 2.48 16.98 6.52 26.85 16.15 12.66 11.8 19.14 27.02 19.14 45.65 0 35.1-19.45 63.35-54.33 63.35-36.1 0-54.33-23.92-54.33-64.9v-14.6zM367 323.87c0-20.18 4.33-36.02 12.97-47.2 3.4-4.04 8.03-8.38 14.82-12.1 6.78-3.42 15.1-5.9 26.22-5.9 22.23 0 34.57 9.62 41.06 18 8.64 11.18 12.96 27.02 12.96 47.2v98.45c0 20.18-4.32 36-12.96 47.2-6.5 8.38-18.83 18-41.06 18-21.9 0-34.57-9.62-41.05-18-8.64-11.2-12.96-27.02-12.96-47.2v-98.45zm29.02 98.44c0 18.33 4.02 27.03 9.26 31.37 5.25 4.35 11.1 4.66 15.74 4.66 4.02 0 10.5-.3 15.75-4.66 5.24-4.34 9.26-13.04 9.26-31.36V323.9c0-17.7-4.02-27-9.26-31.36-5.25-4.34-11.73-4.34-15.75-4.34-4.63 0-10.5 0-15.74 4.35-5.24 4.36-9.26 13.67-9.26 31.37v98.44zM596.25 260.35V422.7c0 20.07-4.32 35.8-12.97 46.92-6.48 8.33-18.83 17.9-41.05 17.9-21.92 0-34.57-9.57-41.05-17.9-8.65-11.1-12.97-26.85-12.97-46.9V260.33h29.03v162.37c0 18.22 4 26.86 9.26 31.18 5.23 4.32 11.1 4.63 15.73 4.63 4 0 10.5-.3 15.74-4.62 5.25-4.32 9.26-12.96 9.26-31.17V260.36h29.02zM607.16 260.04H715.3v29.14h-39.4v196.97h-29.33V289.18h-39.4v-29.14zM804.73 358.83v-98.5l29.34.27v225.55h-29.34v-98.18H755v98.18h-29.06v-225.8H755v98.48h49.73z"/><g><path d="M150.03 487.3h-25.2V415.9h25.2v23.03H232v25.38h-81.97M232 404.55H124.83v-25.43h40.93v-17.36h-40.93v-25.6h107.2v25.6h-40.94v17.36H232M232 323.94H124.83v-63.7h25.2v38.28h15.73v-38.27h25.2v38.27h15.85v-38.27H232"/></g><g><path d="M176.9 245.28c-7.95 0-15.22-1.44-21.6-4.3-6.4-2.85-11.9-7.05-16.4-12.48-4.5-5.4-8-12.1-10.43-19.88-2.42-7.75-3.65-16.7-3.65-26.63 0-9.52 1.23-18.3 3.65-26.08 2.43-7.83 6-14.6 10.6-20.14 4.62-5.54 10.35-9.9 17.02-12.97 6.67-3.06 14.34-4.6 22.8-4.6 7.44 0 14.18 1.2 20.03 3.6 5.82 2.38 10.9 5.5 15.1 9.3l.6.54-1.3 1.32c-.5.48-1 .73-1.55.73-.5 0-1.3-.25-3.3-2-1.34-1.17-3.3-2.46-5.85-3.84-2.55-1.37-5.8-2.67-9.7-3.86-3.85-1.17-8.57-1.77-14.04-1.77-7.74 0-14.75 1.4-20.86 4.16-6.1 2.77-11.33 6.76-15.54 11.87-4.24 5.12-7.52 11.44-9.75 18.78-2.26 7.37-3.4 15.76-3.4 24.94 0 9.5 1.14 18.03 3.4 25.35 2.23 7.3 5.47 13.53 9.63 18.55 4.13 5 9.17 8.83 14.98 11.43 5.8 2.6 12.38 3.92 19.55 3.92 6.36 0 11.8-.74 16.2-2.2 4.4-1.47 8.08-3.12 10.92-4.9 2.85-1.8 5.02-3.44 6.46-4.88 2.17-2.17 3-2.47 3.55-2.47.54 0 1.06.25 1.54.73l.94.94-.35.53c-1.3 1.9-3.2 3.82-5.64 5.72-2.43 1.9-5.37 3.64-8.74 5.2s-7.2 2.85-11.35 3.84c-4.18 1-8.72 1.52-13.5 1.52zM288.1 245.28c-8.7 0-16.5-1.5-23.17-4.5-6.68-2.97-12.4-7.3-16.97-12.85-4.56-5.52-8.07-12.25-10.42-20-2.34-7.72-3.52-16.45-3.52-25.94s1.18-18.28 3.52-26.08c2.35-7.83 5.85-14.6 10.42-20.13 4.56-5.55 10.27-9.92 16.96-13 6.68-3.05 14.48-4.6 23.18-4.6 8.62 0 16.4 1.54 23.1 4.6 6.73 3.08 12.46 7.45 17.03 13 4.58 5.53 8.1 12.3 10.42 20.12 2.34 7.82 3.53 16.6 3.53 26.07s-1.2 18.2-3.53 25.93c-2.33 7.74-5.84 14.47-10.42 20-4.58 5.56-10.3 9.88-17.03 12.86-6.7 2.97-14.48 4.48-23.1 4.48zm0-123.05c-8.23 0-15.52 1.46-21.65 4.35-6.14 2.88-11.32 6.97-15.42 12.17s-7.24 11.53-9.33 18.85c-2.1 7.33-3.15 15.54-3.15 24.4 0 8.83 1.06 17.02 3.15 24.3 2.08 7.28 5.22 13.56 9.33 18.67 4.1 5.1 9.27 9.14 15.4 12 6.15 2.84 13.44 4.28 21.67 4.28 8.15 0 15.42-1.44 21.6-4.3 6.17-2.84 11.38-6.87 15.47-11.98 4.1-5.13 7.25-11.4 9.33-18.66 2.1-7.27 3.14-15.46 3.14-24.3 0-8.87-1.05-17.08-3.14-24.4-2.08-7.3-5.22-13.64-9.33-18.85-4.1-5.2-9.3-9.3-15.48-12.17-6.2-2.9-13.45-4.35-21.6-4.35zM411.28 245.28c-16.03 0-28.45-5.22-36.9-15.54-8.42-10.25-12.7-26.23-12.7-47.5 0-8.82 1.15-17.24 3.4-25 2.25-7.78 5.7-14.64 10.22-20.38 4.55-5.76 10.28-10.36 17.02-13.67 6.77-3.33 14.74-5 23.7-5 9.03 0 17.07 1.82 23.9 5.44 6.14 3.26 11.5 8.2 15.92 14.66V69.48h4.54v174.3h-1.53c-1.6 0-2.5-1-2.5-2.76l-.46-21.1c-5.26 7.42-11.55 13.46-18.75 17.96-7.84 4.9-16.55 7.4-25.87 7.4zm4.74-123.05c-8.4 0-15.8 1.54-21.96 4.6-6.16 3.03-11.37 7.3-15.48 12.66-4.12 5.36-7.24 11.77-9.28 19.03-2.04 7.27-3.08 15.24-3.08 23.7 0 20 3.86 35 11.48 44.62 7.57 9.55 18.87 14.4 33.58 14.4 8.85 0 17.2-2.52 24.8-7.47 7.6-4.96 14.24-11.85 19.76-20.5v-68.2c-5.27-8.3-11.17-14.23-17.53-17.65-6.4-3.45-13.9-5.2-22.28-5.2zM537.4 245.28c-8.46 0-16.15-1.5-22.86-4.5-6.72-2.97-12.5-7.33-17.16-12.96-4.65-5.63-8.28-12.6-10.8-20.7-2.5-8.1-3.76-17.38-3.76-27.63 0-9 1.23-17.37 3.65-24.84 2.43-7.5 6-14.02 10.6-19.38 4.63-5.38 10.36-9.6 17.03-12.6 6.68-2.98 14.36-4.5 22.8-4.5 6.46 0 12.6 1.18 18.23 3.5 5.64 2.32 10.62 5.8 14.78 10.34 4.16 4.53 7.46 10.17 9.83 16.76 2.34 6.6 3.53 14.24 3.53 22.75 0 .84-.4 1.3-.76 1.56-.44.3-.94.44-1.5.44h-93.5c-.1.87-.15 1.74-.15 2.6v3.35c0 10 1.2 18.96 3.58 26.6 2.37 7.64 5.78 14.13 10.13 19.3 4.33 5.14 9.64 9.1 15.78 11.8 6.15 2.7 13.07 4.05 20.56 4.05 6.78 0 12.68-.74 17.52-2.2 4.87-1.48 8.97-3.14 12.18-4.93 3.2-1.78 5.68-3.43 7.34-4.9 2.44-2.13 3.27-2.42 3.8-2.42.4 0 .96.13 1.55.73l1 .97-.45.55c-1.46 1.8-3.57 3.63-6.46 5.58-2.84 1.9-6.2 3.66-9.98 5.23-3.82 1.6-8.04 2.9-12.53 3.9-4.52 1-9.23 1.52-14 1.52zm-49.6-75.53h91.17c-.07-7.45-1.14-14.15-3.2-19.95-2.1-5.97-5.1-11.05-8.86-15.12-3.75-4.04-8.25-7.16-13.35-9.27-5.12-2.1-10.72-3.17-16.65-3.17-7.16 0-13.7 1.17-19.45 3.5-5.73 2.3-10.74 5.6-14.87 9.78-4.15 4.2-7.5 9.33-10 15.28-2.38 5.7-3.98 12.1-4.77 18.97z"/></g></svg>