<?xml version="1.0" encoding="utf-8"?>
<!-- Generator: Adobe Illustrator 16.0.0, SVG Export Plug-In . SVG Version: 6.00 Build 0)  -->
<!DOCTYPE svg PUBLIC "-//W3C//DTD SVG 1.1//EN" "http://www.w3.org/Graphics/SVG/1.1/DTD/svg11.dtd">
<svg version="1.1" id="Layer_1" xmlns="http://www.w3.org/2000/svg" xmlns:xlink="http://www.w3.org/1999/xlink" x="0px" y="0px"
	 width="792px" height="612px" viewBox="0 0 792 612" enable-background="new 0 0 792 612" xml:space="preserve">
<g>
	<polygon fill="#F27035" points="278.187,505.751 166.325,312.008 278.187,118.248 501.918,118.248 613.776,312.008 
		501.918,505.751 	"/>
	<path fill="#FFFFFF" d="M305.09,289.305c-0.943,1.833-2.215,3.403-3.837,4.713c-1.693,1.399-3.685,2.493-5.971,3.272
		c-2.283,0.785-4.81,1.18-7.585,1.18c-2.303,0-4.386-0.184-6.241-0.557c-1.85-0.365-3.546-0.931-5.074-1.702
		c-1.531-0.76-2.909-1.7-4.133-2.813c-1.221-1.115-2.355-2.391-3.403-3.835l3.026-3.01c1.51,2.321,3.55,4.153,6.103,5.5
		c2.55,1.355,5.813,2.033,9.777,2.033c2.482,0,4.671-0.349,6.565-1.053c1.883-0.697,3.517-1.591,4.885-2.683
		c1.078-0.871,1.925-1.911,2.539-3.107c0.607-1.205,0.915-2.479,0.915-3.836c0-1.789-0.359-3.196-1.078-4.223
		c-0.722-1.025-1.493-1.824-2.324-2.393c-0.467-0.305-0.982-0.587-1.54-0.853c-0.56-0.261-1.284-0.555-2.182-0.884
		c-0.905-0.319-2.031-0.688-3.382-1.077c-1.349-0.394-3.033-0.854-5.051-1.374c-2.086-0.575-3.797-1.053-5.125-1.443
		c-1.335-0.394-2.443-0.741-3.324-1.051c-0.885-0.305-1.6-0.598-2.163-0.88c-0.552-0.286-1.088-0.581-1.593-0.887
		c-0.573-0.394-1.13-0.863-1.673-1.407c-0.542-0.543-1.015-1.2-1.432-1.962c-0.414-0.766-0.747-1.641-1-2.624
		c-0.249-0.976-0.376-2.061-0.376-3.239c0-1.705,0.404-3.396,1.216-5.08c0.811-1.678,2.094-3.086,3.862-4.224
		c1.623-1.003,3.465-1.731,5.534-2.197c2.069-0.455,4.384-0.68,6.944-0.68c2.265,0,4.269,0.183,6.019,0.554
		c1.75,0.374,3.296,0.928,4.642,1.677c1.351,0.738,2.523,1.685,3.514,2.846c0.99,1.153,1.86,2.518,2.62,4.089l-3.408,2.157
		c-0.5-1.083-1.12-2.068-1.863-2.945c-0.727-0.869-1.626-1.602-2.667-2.19c-1.044-0.587-2.299-1.037-3.755-1.341
		c-1.457-0.306-3.16-0.462-5.102-0.462c-2.196,0-4.234,0.208-6.105,0.622c-1.873,0.417-3.383,0.994-4.538,1.735
		c-2.053,1.398-3.08,3.276-3.08,5.637c0,1.179,0.261,2.217,0.781,3.104c0.525,0.902,1.218,1.611,2.086,2.132
		c0.498,0.305,1.049,0.584,1.64,0.821c0.6,0.24,1.347,0.512,2.248,0.819c0.897,0.306,1.993,0.632,3.295,0.982
		c1.293,0.346,2.915,0.784,4.856,1.305c1.654,0.442,3.123,0.844,4.376,1.217c1.264,0.37,2.388,0.732,3.402,1.08
		c1.004,0.352,1.9,0.733,2.674,1.145c0.779,0.418,1.501,0.909,2.187,1.474c0.578,0.443,1.149,0.974,1.699,1.604
		c0.565,0.631,1.063,1.354,1.512,2.16c0.456,0.812,0.812,1.726,1.083,2.755c0.271,1.022,0.407,2.151,0.407,3.371
		C306.494,285.464,306.023,287.466,305.09,289.305z"/>
	<rect x="315.837" y="247.844" fill="#FFFFFF" width="3.89" height="49.711"/>
	<path fill="#FFFFFF" d="M383.561,297.555c0-9.825,0-18.094,0-24.827c0-6.765,0.02-12.266,0.059-16.498
		c-2.3,4.231-5.316,9.746-9.043,16.537c-3.732,6.786-8.272,15.051-13.641,24.787h-2.593c-5.367-9.736-9.901-18.021-13.606-24.856
		c-3.714-6.833-6.714-12.322-9.023-16.468c0.038,4.231,0.064,9.746,0.082,16.537c0.019,6.786,0.025,15.051,0.025,24.787h-3.889
		v-49.711h3.727c5.838,10.653,10.741,19.595,14.718,26.817c3.978,7.232,7.086,12.895,9.318,16.999
		c2.228-4.104,5.323-9.767,9.29-16.999c3.963-7.222,8.876-16.165,14.74-26.817h3.675v49.711h-3.839V297.555z"/>
	<path fill="#FFFFFF" d="M428.639,274.436c-3.613,2.62-9.265,3.928-16.936,3.928h-8.851v19.191h-3.891v-49.711h13.826
		c7.308,0,12.688,1.329,16.124,3.994c3.438,2.666,5.156,6.375,5.156,11.135C434.069,267.995,432.257,271.811,428.639,274.436z
		 M430.237,262.973c0-1.312-0.256-2.607-0.764-3.896c-0.503-1.289-1.391-2.431-2.672-3.44c-1.283-1-3.019-1.809-5.215-2.425
		c-2.194-0.607-4.98-0.911-8.365-0.911h-10.43v21.677h8.812c3.739,0,6.809-0.295,9.205-0.886c2.393-0.588,4.285-1.388,5.672-2.391
		c1.388-1.007,2.349-2.171,2.887-3.503c0.542-1.332,0.809-2.74,0.809-4.225H430.237z"/>
	<polygon fill="#FFFFFF" points="442.974,297.555 442.974,247.844 446.812,247.844 446.812,293.033 472.359,293.033 
		472.359,297.555 	"/>
	<polygon fill="#FFFFFF" points="481.429,297.555 481.429,247.844 509.239,247.844 509.239,252.301 485.258,252.301 
		485.258,269.393 504.759,269.393 504.759,273.847 485.258,273.847 485.258,293.033 509.997,293.033 509.997,297.555 	"/>
	<polygon fill="#FFFFFF" points="306.796,376.434 306.796,349.746 277.144,349.746 277.144,376.434 270.835,376.434 
		270.835,318.266 277.144,318.266 277.144,342.314 306.796,342.314 306.796,318.266 313.105,318.266 313.105,376.434 	"/>
	<polygon fill="#FFFFFF" points="306.796,376.434 308.783,376.434 308.783,347.757 275.157,347.757 275.157,374.443 
		272.827,374.443 272.827,320.258 275.157,320.258 275.157,344.303 308.783,344.303 308.783,320.258 311.118,320.258 
		311.118,374.443 306.796,374.443 306.796,376.434 308.783,376.434 306.796,376.434 306.796,378.427 315.089,378.427 
		315.089,316.273 304.809,316.273 304.809,340.325 279.13,340.325 279.13,316.273 268.846,316.273 268.846,378.427 279.13,378.427 
		279.13,351.729 304.809,351.729 304.809,378.427 306.796,378.427 	"/>
	<polygon fill="#FFFFFF" points="331.511,376.434 331.511,318.266 364.675,318.266 364.675,325.693 337.815,325.693 
		337.815,342.459 359.645,342.459 359.645,349.887 337.815,349.887 337.815,369.009 365.531,369.009 365.531,376.434 	"/>
	<polygon fill="#FFFFFF" points="331.511,376.434 333.495,376.434 333.495,320.258 362.696,320.258 362.696,323.705 335.83,323.705 
		335.83,344.452 357.665,344.452 357.665,347.9 335.83,347.9 335.83,370.995 363.539,370.995 363.539,374.443 331.511,374.443 
		331.511,376.434 333.495,376.434 331.511,376.434 331.511,378.427 367.514,378.427 367.514,367.02 339.803,367.02 339.803,351.879 
		361.639,351.879 361.639,340.471 339.803,340.471 339.803,327.677 366.673,327.677 366.673,316.273 329.521,316.273 
		329.521,378.427 331.511,378.427 	"/>
	<polygon fill="#FFFFFF" points="382.804,376.434 382.804,318.266 389.112,318.266 389.112,369.009 417.733,369.009 
		417.733,376.434 	"/>
	<polygon fill="#FFFFFF" points="382.804,376.434 384.798,376.434 384.798,320.258 387.127,320.258 387.127,370.995 
		415.744,370.995 415.744,374.443 382.804,374.443 382.804,376.434 384.798,376.434 382.804,376.434 382.804,378.427 
		419.718,378.427 419.718,367.02 391.102,367.02 391.102,316.273 380.812,316.273 380.812,378.427 382.804,378.427 	"/>
	<rect x="434.02" y="318.266" fill="#FFFFFF" width="6.309" height="58.168"/>
	<polygon fill="#FFFFFF" points="434.02,376.434 436.011,376.434 436.011,320.258 438.336,320.258 438.336,374.443 434.02,374.443 
		434.02,376.434 436.011,376.434 434.02,376.434 434.02,378.427 442.312,378.427 442.312,316.273 432.034,316.273 432.034,378.427 
		434.02,378.427 	"/>
	<polygon fill="#FFFFFF" points="513.723,397.166 482.06,351.951 464.84,376.434 456.714,376.434 478.055,346.288 458.229,318.266 
		466.413,318.266 482.06,340.627 497.701,318.266 505.888,318.266 486.064,346.288 521.842,397.166 	"/>
	<polygon fill="#FFFFFF" points="513.723,397.166 515.351,396.02 482.06,348.484 463.805,374.443 460.557,374.443 480.503,346.288 
		462.075,320.258 465.379,320.258 482.06,344.085 498.745,320.258 502.05,320.258 483.632,346.282 518.018,395.176 513.723,395.176 
		513.723,397.166 515.351,396.02 513.723,397.166 513.723,399.151 525.673,399.151 488.501,346.291 509.737,316.273 
		496.672,316.273 482.06,337.158 467.448,316.273 454.389,316.273 475.624,346.288 452.866,378.427 465.871,378.427 
		482.055,355.409 512.686,399.151 513.723,399.151 	"/>
	<polygon fill="#EC563C" points="253.484,462.966 229.432,505.37 180.083,505.619 155.578,462.915 180.062,420.662 229.059,420.662 
			"/>
	<polygon fill="#C44F54" points="327.423,505.751 303.137,547.562 254.201,547.562 229.412,505.369 253.484,462.966 
		278.157,505.751 	"/>
	<polygon opacity="0.8" fill="#F0AE4D" enable-background="new    " points="550.275,117.888 526.133,160.446 501.918,118.248 
		452.613,118.248 476.569,76.053 525.492,75.688 	"/>
	<polygon fill="#BF2531" points="253.479,463.004 278.187,505.751 327.423,505.751 302.77,462.966 	"/>
	<polygon fill="#EFA721" points="452.613,118.248 501.918,118.248 526.133,160.446 477.193,160.81 	"/>
</g>
</svg>
