<?xml version="1.0" encoding="utf-8"?>
<!-- Generator: Adobe Illustrator 16.0.0, SVG Export Plug-In . SVG Version: 6.00 Build 0)  -->
<!DOCTYPE svg PUBLIC "-//W3C//DTD SVG 1.1//EN" "http://www.w3.org/Graphics/SVG/1.1/DTD/svg11.dtd">
<svg version="1.1" id="Layer_1" xmlns="http://www.w3.org/2000/svg" xmlns:xlink="http://www.w3.org/1999/xlink" x="0px" y="0px"
	 width="792px" height="612px" viewBox="0 0 792 612" enable-background="new 0 0 792 612" xml:space="preserve">
<rect x="-175.401" y="-377.845" fill="#B9BEBE" width="851" height="315"/>
<polygon fill="#0C2025" points="601.009,-378.232 616.342,-62.184 679.958,-62.845 675.6,-378.232 "/>
<g>
	<defs>
		<polygon id="SVGID_1_" points="188.914,-37.505 188.914,-395.186 704.044,-395.186 715.332,-32.255 		"/>
	</defs>
	<clipPath id="SVGID_2_">
		<use xlink:href="#SVGID_1_"  overflow="visible"/>
	</clipPath>
	<g clip-path="url(#SVGID_2_)">
		<polygon fill="#BF2530" points="504.68,-282.107 515.298,-263.714 504.68,-245.325 483.442,-245.325 472.824,-263.714 
			483.442,-282.107 		"/>
		<polygon opacity="0.5" fill="#BF2530" points="504.68,-245.325 515.298,-226.934 504.68,-208.543 483.442,-208.543 
			472.824,-226.934 483.442,-245.325 		"/>
		<polygon fill="#FFFFFF" points="525.858,-208.448 547.091,-171.672 525.858,-134.897 483.395,-134.897 462.163,-171.672 
			483.395,-208.448 		"/>
		<polygon opacity="0.8" fill="#BF2530" points="568.472,-208.448 589.703,-171.672 568.472,-134.897 526.008,-134.897 
			504.775,-171.672 526.008,-208.448 		"/>
		<polygon opacity="0.5" fill="#BF2530" points="589.699,-245.419 610.931,-208.644 589.699,-171.871 547.236,-171.871 
			526.004,-208.644 547.236,-245.419 		"/>
		<polygon opacity="0.7" fill="#EF6F3D" points="652.909,-207.495 674.139,-170.718 652.909,-133.944 610.443,-133.944 
			589.211,-170.718 610.443,-207.495 		"/>
		<polygon fill="#F27035" fill-opacity="0.9" points="525.842,-208.448 547.073,-171.672 525.842,-134.897 483.378,-134.897 
			462.146,-171.672 483.378,-208.448 		"/>
		<polygon opacity="0.5" fill="#BF2530" points="526.008,-134.9 547.238,-98.126 526.008,-61.351 483.543,-61.351 462.312,-98.126 
			483.543,-134.9 		"/>
		<polygon opacity="0.3" fill="#BF2530" points="504.774,-171.668 526.006,-134.896 504.774,-98.121 462.31,-98.121 
			441.08,-134.896 462.31,-171.668 		"/>
		<polygon fill="#FFFFFF" points="568.089,-134.915 589.32,-98.14 568.089,-61.364 525.624,-61.364 504.394,-98.14 
			525.624,-134.915 		"/>
		<polygon fill="#F27035" points="568.232,-134.995 589.513,-98.14 568.232,-61.284 525.677,-61.284 504.397,-98.14 
			525.677,-134.995 		"/>
		<polygon opacity="0.6" fill="#BF2530" points="546.876,-98.142 568.108,-61.367 546.876,-24.593 504.412,-24.593 483.179,-61.367 
			504.412,-98.142 		"/>
		<polygon opacity="0.5" fill="#EC563C" points="536.224,-337.442 557.454,-300.666 536.224,-263.893 493.761,-263.893 
			472.528,-300.666 493.761,-337.442 		"/>
		<polygon opacity="0.4" fill="#BF2530" points="494.023,-263.715 504.641,-245.325 494.023,-226.934 472.787,-226.934 
			462.17,-245.325 472.787,-263.715 		"/>
		<polygon opacity="0.8" fill="#BF2530" points="547.012,-282.107 557.632,-263.714 547.012,-245.325 525.775,-245.325 
			515.158,-263.714 525.775,-282.107 		"/>
		<polygon opacity="0.5" fill="#F0562C" points="547.012,-245.325 557.632,-226.934 547.012,-208.543 525.775,-208.543 
			515.158,-226.934 525.775,-245.325 		"/>
		<polygon opacity="0.6" fill="#EC563C" points="589.422,-282.283 600.043,-263.893 589.422,-245.501 568.188,-245.501 
			557.569,-263.893 568.188,-282.283 		"/>
		<polygon opacity="0.5" fill="#EC563C" points="610.175,-282.283 620.793,-263.893 610.175,-245.501 588.938,-245.501 
			578.32,-263.893 588.938,-282.283 		"/>
		<polygon opacity="0.5" fill="#F0A721" points="589.099,-319.266 599.717,-300.873 589.099,-282.482 567.861,-282.482 
			557.246,-300.873 567.861,-319.266 		"/>
		<polygon opacity="0.4" fill="#BF2530" points="578.491,-301.099 589.11,-282.708 578.491,-264.316 557.254,-264.316 
			546.637,-282.708 557.254,-301.099 		"/>
		<polygon opacity="0.7" fill="#F0A721" points="472.77,-226.811 483.387,-208.421 472.77,-190.03 451.532,-190.03 
			440.913,-208.421 451.532,-226.811 		"/>
		<polygon opacity="0.5" fill="#BF2530" points="462.063,-208.323 472.682,-189.931 462.063,-171.539 440.826,-171.539 
			430.208,-189.931 440.826,-208.323 		"/>
		<polygon opacity="0.8" fill="#F27035" points="536.357,-226.934 546.975,-208.542 536.357,-190.15 515.118,-190.15 
			504.502,-208.542 515.118,-226.934 		"/>
		<polygon fill="#F0A721" points="536.357,-263.715 546.975,-245.325 536.357,-226.934 515.118,-226.934 504.502,-245.325 
			515.118,-263.715 		"/>
		<polygon fill="#BF2530" points="493.975,-337.575 504.595,-319.184 493.975,-300.793 472.738,-300.793 462.121,-319.184 
			472.738,-337.575 		"/>
		<polygon fill="#F27035" points="525.916,-356.308 536.533,-337.917 525.916,-319.526 504.678,-319.526 494.062,-337.917 
			504.678,-356.308 		"/>
		<polygon opacity="0.5" fill="#F0A721" points="472.682,-337.917 483.302,-319.526 472.682,-301.136 451.446,-301.136 
			440.827,-319.526 451.446,-337.917 		"/>
		<polygon opacity="0.5" fill="#EC563C" points="493.759,-374.351 514.991,-337.575 493.759,-300.802 451.298,-300.802 
			430.063,-337.575 451.298,-374.351 		"/>
		<polygon opacity="0.7" fill="#F0A721" points="250.837,-61.282 240.219,-79.671 250.837,-98.063 272.073,-98.063 282.692,-79.671 
			272.073,-61.282 		"/>
		<polygon opacity="0.5" fill="#BF2530" points="261.541,-79.771 250.924,-98.163 261.541,-116.554 282.778,-116.554 
			293.397,-98.163 282.778,-79.771 		"/>
	</g>
	<g clip-path="url(#SVGID_2_)">
		<polygon fill="#F6A863" points="852.582,-23.482 863.2,-5.091 852.582,13.299 831.345,13.299 820.728,-5.091 831.345,-23.482 		
			"/>
		<polygon opacity="0.8" fill="#EC563C" points="884.124,-78.816 905.356,-42.042 884.124,-5.268 841.661,-5.268 820.431,-42.042 
			841.661,-78.816 		"/>
		<polygon fill="#F6A863" points="894.914,-23.482 905.533,-5.091 894.914,13.299 873.678,13.299 863.06,-5.091 873.678,-23.482 		
			"/>
		<polygon fill="#F6A863" points="841.876,-78.952 852.495,-60.56 841.876,-42.17 820.641,-42.17 810.022,-60.56 820.641,-78.952 		
			"/>
		<polygon opacity="0.5" fill="#F0A721" points="841.876,-42.17 852.495,-23.777 841.876,-5.388 820.641,-5.388 810.022,-23.777 
			820.641,-42.17 		"/>
		<polygon fill="#F27035" points="831.223,-60.56 841.839,-42.17 831.223,-23.777 809.985,-23.777 799.367,-42.17 809.985,-60.56 		
			"/>
		<polygon opacity="0.7" fill="#F0A721" points="820.585,-78.862 831.205,-60.472 820.585,-42.081 799.349,-42.081 788.73,-60.472 
			799.349,-78.862 		"/>
	</g>
	<polygon clip-path="url(#SVGID_2_)" fill="#FFFFFF" points="335.781,-98.079 357.013,-61.304 335.781,-24.53 293.315,-24.53 
		272.085,-61.304 293.315,-98.079 	"/>
	<polygon opacity="0.7" clip-path="url(#SVGID_2_)" fill="#F6A863" points="378.393,-98.079 399.625,-61.304 378.393,-24.53 
		335.93,-24.53 314.696,-61.304 335.93,-98.079 	"/>
	<polygon opacity="0.8" clip-path="url(#SVGID_2_)" fill="#F6A863" points="399.621,-135.05 420.853,-98.276 399.621,-61.5 
		357.158,-61.5 335.927,-98.276 357.158,-135.05 	"/>
	<polygon opacity="0.7" clip-path="url(#SVGID_2_)" fill="#EC563C" points="462.83,-97.126 484.061,-60.351 462.83,-23.576 
		420.365,-23.576 399.134,-60.351 420.365,-97.126 	"/>
	<polygon clip-path="url(#SVGID_2_)" fill="#F27035" points="335.764,-98.079 356.996,-61.304 335.764,-24.53 293.3,-24.53 
		272.07,-61.304 293.3,-98.079 	"/>
	<polygon opacity="0.6" clip-path="url(#SVGID_2_)" fill="#EF6F3D" points="346.382,-226.837 367.613,-190.063 346.382,-153.288 
		303.918,-153.288 282.687,-190.063 303.918,-226.837 	"/>
	<polygon opacity="0.8" clip-path="url(#SVGID_2_)" fill="#F6A863" points="356.935,-171.738 367.553,-153.347 356.935,-134.958 
		335.698,-134.958 325.079,-153.347 335.698,-171.738 	"/>
	<polygon opacity="0.5" clip-path="url(#SVGID_2_)" fill="#F0562C" points="356.935,-134.958 367.553,-116.565 356.935,-98.175 
		335.698,-98.175 325.079,-116.565 335.698,-134.958 	"/>
	<polygon opacity="0.6" clip-path="url(#SVGID_2_)" fill="#EC563C" points="399.405,-171.738 410.022,-153.347 399.405,-134.956 
		378.169,-134.956 367.549,-153.347 378.169,-171.738 	"/>
	<polygon opacity="0.7" clip-path="url(#SVGID_2_)" fill="#EC563C" points="420.803,-171.737 431.425,-153.347 420.803,-134.956 
		399.567,-134.956 388.95,-153.347 399.567,-171.737 	"/>
	<polygon opacity="0.7" clip-path="url(#SVGID_2_)" fill="#F0A721" points="399.375,-208.542 409.994,-190.152 399.375,-171.761 
		378.139,-171.761 367.521,-190.152 378.139,-208.542 	"/>
	<polygon opacity="0.8" clip-path="url(#SVGID_2_)" fill="#EF6F3D" points="388.886,-190.14 399.503,-171.749 388.886,-153.356 
		367.648,-153.356 357.03,-171.749 367.648,-190.14 	"/>
	<polygon opacity="0.9" clip-path="url(#SVGID_2_)" fill="#EF6F3D" points="346.279,-116.565 356.897,-98.173 346.279,-79.782 
		325.042,-79.782 314.423,-98.173 325.042,-116.565 	"/>
	<polygon clip-path="url(#SVGID_2_)" fill="#F0A721" points="346.279,-153.347 356.897,-134.958 346.279,-116.565 325.042,-116.565 
		314.423,-134.958 325.042,-153.347 	"/>
</g>
<g>
	<polygon fill="#F27035" points="278.187,505.751 166.325,312.008 278.187,118.248 501.918,118.248 613.776,312.008 
		501.918,505.751 	"/>
	<path fill="#FFFFFF" d="M305.09,289.305c-0.943,1.833-2.215,3.403-3.837,4.713c-1.693,1.399-3.685,2.493-5.971,3.272
		c-2.283,0.785-4.81,1.18-7.585,1.18c-2.303,0-4.386-0.184-6.241-0.557c-1.85-0.365-3.546-0.931-5.074-1.702
		c-1.531-0.76-2.909-1.7-4.133-2.813c-1.221-1.115-2.355-2.391-3.403-3.835l3.026-3.01c1.51,2.321,3.55,4.153,6.103,5.5
		c2.55,1.355,5.813,2.033,9.777,2.033c2.482,0,4.671-0.349,6.565-1.053c1.883-0.697,3.517-1.591,4.885-2.683
		c1.078-0.871,1.925-1.911,2.539-3.107c0.607-1.205,0.915-2.479,0.915-3.836c0-1.789-0.359-3.196-1.078-4.223
		c-0.722-1.025-1.493-1.824-2.324-2.393c-0.467-0.305-0.982-0.587-1.54-0.853c-0.56-0.261-1.284-0.555-2.182-0.884
		c-0.905-0.319-2.031-0.688-3.382-1.077c-1.349-0.394-3.033-0.854-5.051-1.374c-2.086-0.575-3.797-1.053-5.125-1.443
		c-1.335-0.394-2.443-0.741-3.324-1.051c-0.885-0.305-1.6-0.598-2.163-0.88c-0.552-0.286-1.088-0.581-1.593-0.887
		c-0.573-0.394-1.13-0.863-1.673-1.407c-0.542-0.543-1.015-1.2-1.432-1.962c-0.414-0.766-0.747-1.641-1-2.624
		c-0.249-0.976-0.376-2.061-0.376-3.239c0-1.705,0.404-3.396,1.216-5.08c0.811-1.678,2.094-3.086,3.862-4.224
		c1.623-1.003,3.465-1.731,5.534-2.197c2.069-0.455,4.384-0.68,6.944-0.68c2.265,0,4.269,0.183,6.019,0.554
		c1.75,0.374,3.296,0.928,4.642,1.677c1.351,0.738,2.523,1.685,3.514,2.846c0.99,1.153,1.86,2.518,2.62,4.089l-3.408,2.157
		c-0.5-1.083-1.12-2.068-1.863-2.945c-0.727-0.869-1.626-1.602-2.667-2.19c-1.044-0.587-2.299-1.037-3.755-1.341
		c-1.457-0.306-3.16-0.462-5.102-0.462c-2.196,0-4.234,0.208-6.105,0.622c-1.873,0.417-3.383,0.994-4.538,1.735
		c-2.053,1.398-3.08,3.276-3.08,5.637c0,1.179,0.261,2.217,0.781,3.104c0.525,0.902,1.218,1.611,2.086,2.132
		c0.498,0.305,1.049,0.584,1.64,0.821c0.6,0.24,1.347,0.512,2.248,0.819c0.897,0.306,1.993,0.632,3.295,0.982
		c1.293,0.346,2.915,0.784,4.856,1.305c1.654,0.442,3.123,0.844,4.376,1.217c1.264,0.37,2.388,0.732,3.402,1.08
		c1.004,0.352,1.9,0.733,2.674,1.145c0.779,0.418,1.501,0.909,2.187,1.474c0.578,0.443,1.149,0.974,1.699,1.604
		c0.565,0.631,1.063,1.355,1.512,2.16c0.456,0.812,0.812,1.726,1.083,2.755c0.271,1.022,0.407,2.151,0.407,3.371
		C306.494,285.464,306.023,287.466,305.09,289.305z"/>
	<rect x="315.837" y="247.844" fill="#FFFFFF" width="3.89" height="49.711"/>
	<path fill="#FFFFFF" d="M383.561,297.555c0-9.825,0-18.094,0-24.827c0-6.765,0.019-12.266,0.058-16.498
		c-2.3,4.231-5.316,9.746-9.043,16.537c-3.732,6.786-8.272,15.051-13.64,24.787h-2.593c-5.367-9.736-9.902-18.021-13.607-24.856
		c-3.714-6.833-6.714-12.322-9.023-16.468c0.038,4.231,0.064,9.746,0.082,16.537c0.018,6.786,0.025,15.051,0.025,24.787h-3.888
		v-49.711h3.726c5.838,10.653,10.741,19.595,14.718,26.817c3.978,7.232,7.086,12.895,9.318,16.999
		c2.228-4.104,5.324-9.767,9.29-16.999c3.963-7.222,8.876-16.165,14.741-26.817h3.674v49.711H383.561z"/>
	<path fill="#FFFFFF" d="M428.639,274.436c-3.614,2.62-9.265,3.928-16.936,3.928h-8.85v19.191h-3.891v-49.711h13.826
		c7.308,0,12.688,1.329,16.124,3.994c3.438,2.666,5.156,6.375,5.156,11.135C434.069,267.995,432.257,271.811,428.639,274.436z
		 M430.237,262.973c0-1.312-0.256-2.607-0.763-3.896c-0.503-1.289-1.391-2.431-2.672-3.44c-1.283-1-3.019-1.809-5.215-2.425
		c-2.194-0.607-4.981-0.911-8.365-0.911h-10.43v21.677h8.811c3.74,0,6.809-0.295,9.206-0.886c2.392-0.588,4.285-1.388,5.671-2.391
		c1.388-1.007,2.349-2.171,2.887-3.503c0.542-1.332,0.809-2.74,0.809-4.225H430.237z"/>
	<polygon fill="#FFFFFF" points="442.974,297.555 442.974,247.844 446.812,247.844 446.812,293.033 472.359,293.033 
		472.359,297.555 	"/>
	<polygon fill="#FFFFFF" points="481.429,297.555 481.429,247.844 509.239,247.844 509.239,252.301 485.258,252.301 
		485.258,269.393 504.759,269.393 504.759,273.847 485.258,273.847 485.258,293.033 509.997,293.033 509.997,297.555 	"/>
	<polygon fill="#FFFFFF" points="306.796,376.433 306.796,349.746 277.144,349.746 277.144,376.433 270.835,376.433 
		270.835,318.266 277.144,318.266 277.144,342.315 306.796,342.315 306.796,318.266 313.105,318.266 313.105,376.433 	"/>
	<polygon fill="#FFFFFF" points="306.796,376.433 308.783,376.433 308.783,347.757 275.157,347.757 275.157,374.443 
		272.827,374.443 272.827,320.258 275.157,320.258 275.157,344.303 308.783,344.303 308.783,320.258 311.118,320.258 
		311.118,374.443 306.796,374.443 306.796,376.433 308.783,376.433 306.796,376.433 306.796,378.427 315.089,378.427 
		315.089,316.273 304.809,316.273 304.809,340.325 279.13,340.325 279.13,316.273 268.846,316.273 268.846,378.427 279.13,378.427 
		279.13,351.729 304.809,351.729 304.809,378.427 306.796,378.427 	"/>
	<polygon fill="#FFFFFF" points="331.511,376.433 331.511,318.266 364.675,318.266 364.675,325.694 337.815,325.694 
		337.815,342.459 359.645,342.459 359.645,349.887 337.815,349.887 337.815,369.009 365.531,369.009 365.531,376.433 	"/>
	<polygon fill="#FFFFFF" points="331.511,376.433 333.495,376.433 333.495,320.258 362.696,320.258 362.696,323.705 335.83,323.705 
		335.83,344.452 357.665,344.452 357.665,347.901 335.83,347.901 335.83,370.995 363.539,370.995 363.539,374.443 331.511,374.443 
		331.511,376.433 333.495,376.433 331.511,376.433 331.511,378.427 367.514,378.427 367.514,367.02 339.803,367.02 339.803,351.879 
		361.639,351.879 361.639,340.47 339.803,340.47 339.803,327.677 366.673,327.677 366.673,316.273 329.521,316.273 329.521,378.427 
		331.511,378.427 	"/>
	<polygon fill="#FFFFFF" points="382.804,376.433 382.804,318.266 389.112,318.266 389.112,369.009 417.733,369.009 
		417.733,376.433 	"/>
	<polygon fill="#FFFFFF" points="382.804,376.433 384.798,376.433 384.798,320.258 387.127,320.258 387.127,370.995 
		415.744,370.995 415.744,374.443 382.804,374.443 382.804,376.433 384.798,376.433 382.804,376.433 382.804,378.427 
		419.718,378.427 419.718,367.02 391.102,367.02 391.102,316.273 380.813,316.273 380.813,378.427 382.804,378.427 	"/>
	<rect x="434.02" y="318.266" fill="#FFFFFF" width="6.308" height="58.167"/>
	<polygon fill="#FFFFFF" points="434.02,376.433 436.011,376.433 436.011,320.258 438.336,320.258 438.336,374.443 434.02,374.443 
		434.02,376.433 436.011,376.433 434.02,376.433 434.02,378.427 442.312,378.427 442.312,316.273 432.034,316.273 432.034,378.427 
		434.02,378.427 	"/>
	<polygon fill="#FFFFFF" points="513.723,397.166 482.06,351.951 464.84,376.433 456.714,376.433 478.055,346.288 458.229,318.266 
		466.413,318.266 482.06,340.627 497.701,318.266 505.888,318.266 486.064,346.288 521.842,397.166 	"/>
	<polygon fill="#FFFFFF" points="513.723,397.166 515.351,396.02 482.06,348.485 463.805,374.443 460.557,374.443 480.503,346.288 
		462.075,320.258 465.379,320.258 482.06,344.085 498.745,320.258 502.05,320.258 483.632,346.282 518.018,395.176 513.723,395.176 
		513.723,397.166 515.351,396.02 513.723,397.166 513.723,399.151 525.673,399.151 488.501,346.291 509.737,316.273 
		496.672,316.273 482.06,337.158 467.448,316.273 454.389,316.273 475.624,346.288 452.866,378.427 465.871,378.427 
		482.055,355.409 512.686,399.151 513.723,399.151 	"/>
	<polygon fill="#EC563C" points="253.484,462.966 229.432,505.37 180.083,505.619 155.578,462.915 180.062,420.662 229.059,420.662 
			"/>
	<polygon fill="#C44F54" points="327.423,505.751 303.137,547.563 254.201,547.563 229.412,505.369 253.484,462.966 
		278.157,505.751 	"/>
	<polygon opacity="0.8" fill="#F0AE4D" points="550.275,117.888 526.133,160.446 501.918,118.248 452.613,118.248 476.569,76.053 
		525.492,75.688 	"/>
	<polygon fill="#BF2531" points="253.479,463.004 278.187,505.751 327.423,505.751 302.77,462.966 	"/>
	<polygon fill="#EFA721" points="452.613,118.248 501.918,118.248 526.133,160.446 477.193,160.81 	"/>
</g>
</svg>
